<svg xmlns="http://www.w3.org/2000/svg" xmlns:xlink="http://www.w3.org/1999/xlink" width="1400" zoomAndPan="magnify" viewBox="0 0 1050 374.999991" height="500" preserveAspectRatio="xMidYMid meet" version="1.0"><defs><g/></defs><g fill="#000000" fill-opacity="1"><g transform="translate(43.583386, 291.851719)"><g><path d="M 136.125 -121.304688 C 132.832031 -107.859375 129.265625 -93.3125 126.246094 -79.316406 C 123.226562 -93.3125 119.660156 -107.859375 116.367188 -121.304688 L 97.703125 -195.40625 L 13.722656 -195.40625 L 13.722656 0 L 65.867188 0 L 65.867188 -55.4375 C 65.867188 -88.097656 65.59375 -115.542969 64.222656 -146.828125 C 67.789062 -132.558594 71.082031 -119.933594 75.746094 -103.464844 L 104.015625 0 L 148.476562 0 L 176.746094 -103.464844 C 181.410156 -119.933594 184.703125 -132.558594 188.269531 -146.828125 C 186.898438 -115.542969 186.625 -88.097656 186.625 -55.4375 L 186.625 0 L 238.769531 0 L 238.769531 -195.40625 L 154.789062 -195.40625 Z M 136.125 -121.304688 "/></g></g></g><g fill="#000000" fill-opacity="1"><g transform="translate(293.330144, 291.851719)"><g><path d="M 155.613281 0 C 151.769531 -5.214844 149.847656 -14.546875 149.847656 -25.523438 L 149.847656 -100.449219 C 149.847656 -128.441406 129.265625 -144.910156 83.15625 -144.910156 C 35.679688 -144.910156 13.996094 -127.890625 11.527344 -94.957031 L 61.476562 -94.957031 C 62.847656 -107.035156 68.613281 -110.054688 82.609375 -110.054688 C 97.15625 -110.054688 100.449219 -105.113281 100.449219 -98.800781 C 100.449219 -91.117188 94.957031 -88.097656 83.433594 -87 L 60.652344 -85.078125 C 19.210938 -81.511719 4.117188 -66.140625 4.117188 -40.894531 C 4.117188 -12.074219 26.894531 3.292969 56.261719 3.292969 C 77.394531 3.292969 92.488281 -3.566406 101.269531 -14.546875 C 101.546875 -9.058594 103.191406 -3.566406 104.839844 0 Z M 73.550781 -29.089844 C 62.300781 -29.089844 55.4375 -34.304688 55.4375 -42.8125 C 55.4375 -51.320312 60.925781 -55.710938 71.628906 -56.8125 L 87.824219 -58.457031 C 94.136719 -59.28125 97.976562 -60.652344 100.449219 -63.945312 L 100.449219 -55.710938 C 100.449219 -35.679688 88.371094 -29.089844 73.550781 -29.089844 Z M 73.550781 -29.089844 "/></g></g></g><g fill="#000000" fill-opacity="1"><g transform="translate(451.686034, 291.851719)"><g><path d="M 61.476562 0 L 61.476562 -195.40625 L 10.976562 -195.40625 L 10.976562 0 Z M 61.476562 0 "/></g></g></g><g fill="#000000" fill-opacity="1"><g transform="translate(524.140039, 291.851719)"><g><path d="M 80.960938 3.292969 C 122.679688 3.292969 151.769531 -20.308594 153.964844 -58.183594 L 104.566406 -58.183594 C 103.191406 -43.363281 93.859375 -37.324219 80.960938 -37.324219 C 65.042969 -37.324219 56.261719 -47.203125 56.261719 -70.808594 C 56.261719 -94.410156 65.042969 -104.566406 80.960938 -104.566406 C 92.761719 -104.566406 101.269531 -99.074219 103.464844 -86.449219 L 153.140625 -86.449219 C 149.574219 -122.402344 121.582031 -144.910156 80.960938 -144.910156 C 34.582031 -144.910156 5.488281 -115.542969 5.488281 -70.808594 C 5.488281 -26.074219 34.582031 3.292969 80.960938 3.292969 Z M 80.960938 3.292969 "/></g></g></g><g fill="#000000" fill-opacity="1"><g transform="translate(683.593764, 291.851719)"><g><path d="M 155.613281 0 C 151.769531 -5.214844 149.847656 -14.546875 149.847656 -25.523438 L 149.847656 -100.449219 C 149.847656 -128.441406 129.265625 -144.910156 83.15625 -144.910156 C 35.679688 -144.910156 13.996094 -127.890625 11.527344 -94.957031 L 61.476562 -94.957031 C 62.847656 -107.035156 68.613281 -110.054688 82.609375 -110.054688 C 97.15625 -110.054688 100.449219 -105.113281 100.449219 -98.800781 C 100.449219 -91.117188 94.957031 -88.097656 83.433594 -87 L 60.652344 -85.078125 C 19.210938 -81.511719 4.117188 -66.140625 4.117188 -40.894531 C 4.117188 -12.074219 26.894531 3.292969 56.261719 3.292969 C 77.394531 3.292969 92.488281 -3.566406 101.269531 -14.546875 C 101.546875 -9.058594 103.191406 -3.566406 104.839844 0 Z M 73.550781 -29.089844 C 62.300781 -29.089844 55.4375 -34.304688 55.4375 -42.8125 C 55.4375 -51.320312 60.925781 -55.710938 71.628906 -56.8125 L 87.824219 -58.457031 C 94.136719 -59.28125 97.976562 -60.652344 100.449219 -63.945312 L 100.449219 -55.710938 C 100.449219 -35.679688 88.371094 -29.089844 73.550781 -29.089844 Z M 73.550781 -29.089844 "/></g></g></g><g fill="#000000" fill-opacity="1"><g transform="translate(841.949729, 291.851719)"><g><path d="M 104.566406 -144.910156 C 83.980469 -144.910156 69.984375 -135.300781 60.378906 -122.953125 L 60.378906 -141.613281 L 10.976562 -141.613281 L 10.976562 0 L 61.476562 0 L 61.476562 -78.492188 C 61.476562 -95.507812 72.453125 -102.09375 83.707031 -102.09375 C 97.976562 -102.09375 102.917969 -94.136719 102.917969 -80.960938 L 102.917969 0 L 153.417969 0 L 153.417969 -91.664062 C 153.417969 -128.167969 131.460938 -144.910156 104.566406 -144.910156 Z M 104.566406 -144.910156 "/></g></g></g></svg>